<svg width="24" height="24" viewBox="0 0 24 24" fill="none" xmlns="http://www.w3.org/2000/svg">
<g id="mdi:password-check-outline">
<path id="Vector" d="M14 15C14 16.11 13.11 17 12 17C11.4696 17 10.9609 16.7893 10.5858 16.4142C10.2107 16.0391 10 15.5304 10 15C10 13.89 10.89 13 12 13C12.5304 13 13.0391 13.2107 13.4142 13.5858C13.7893 13.9609 14 14.4696 14 15ZM13.09 20C13.21 20.72 13.46 21.39 13.81 22H6C5.46957 22 4.96086 21.7893 4.58579 21.4142C4.21071 21.0391 4 20.5304 4 20V10C4 8.89 4.89 8 6 8H7V6C7 3.24 9.24 1 12 1C14.76 1 17 3.24 17 6V8H18C18.5304 8 19.0391 8.21071 19.4142 8.58579C19.7893 8.96086 20 9.46957 20 10V13.09C19.67 13.04 19.34 13 19 13C18.66 13 18.33 13.04 18 13.09V10H6V20H13.09ZM9 8H15V6C15 4.34 13.66 3 12 3C10.34 3 9 4.34 9 6V8ZM21.34 15.84L17.75 19.43L16.16 17.84L15 19L17.75 22L22.5 17.25L21.34 15.84Z" fill="#636363"/>
</g>
</svg>
