<svg width="25" height="24" viewBox="0 0 25 24" fill="none" xmlns="http://www.w3.org/2000/svg">
<g id="Icon/Search">
<path id="Vector" d="M20.4 20.975L13.825 14.4C13.325 14.8333 12.742 15.1708 12.076 15.4125C11.41 15.6542 10.7014 15.775 9.95 15.775C8.1473 15.775 6.62163 15.15 5.37298 13.9C4.12433 12.65 3.5 11.1417 3.5 9.375C3.5 7.60833 4.125 6.1 5.375 4.85C6.625 3.6 8.1375 2.975 9.9125 2.975C11.6875 2.975 13.1958 3.6 14.4375 4.85C15.6792 6.1 16.3 7.60958 16.3 9.37875C16.3 10.0929 16.1833 10.7833 15.95 11.45C15.7167 12.1167 15.3667 12.7417 14.9 13.325L21.5 19.875L20.4 20.975ZM9.925 14.275C11.2792 14.275 12.4302 13.7958 13.3781 12.8375C14.326 11.8792 14.8 10.725 14.8 9.375C14.8 8.025 14.326 6.87083 13.3781 5.9125C12.4302 4.95417 11.2792 4.475 9.925 4.475C8.55695 4.475 7.3941 4.95417 6.43645 5.9125C5.47882 6.87083 5 8.025 5 9.375C5 10.725 5.47882 11.8792 6.43645 12.8375C7.3941 13.7958 8.55695 14.275 9.925 14.275Z" fill="black"/>
</g>
</svg>
