<svg width="187" height="42" viewBox="0 0 187 42" fill="none" xmlns="http://www.w3.org/2000/svg">
<g id="musiport">
<path d="M29.8362 32.2335C29.2267 32.2335 28.7142 32.0379 28.2987 31.6467C27.9108 31.2275 27.7169 30.7106 27.7169 30.0958V18.1078C27.7169 16.3473 27.2875 15.0479 26.4287 14.2096C25.5699 13.3433 24.448 12.9102 23.0628 12.9102C21.6223 12.9102 20.431 13.4132 19.4891 14.4192C18.5749 15.4251 18.1178 16.7106 18.1178 18.2754H14.6688C14.6688 16.4591 15.0566 14.8663 15.8323 13.497C16.608 12.0998 17.6884 11.01 19.0736 10.2275C20.4864 9.44511 22.0932 9.05389 23.8939 9.05389C25.473 9.05389 26.872 9.40319 28.0909 10.1018C29.3099 10.8004 30.2518 11.8343 30.9166 13.2036C31.6092 14.5449 31.9555 16.1796 31.9555 18.1078V30.0958C31.9555 30.7106 31.7616 31.2275 31.3737 31.6467C30.9859 32.0379 30.4734 32.2335 29.8362 32.2335ZM2.11929 32.2335C1.50982 32.2335 0.997311 32.0379 0.581764 31.6467C0.193921 31.2275 0 30.7106 0 30.0958V11.4431C0 10.8004 0.193921 10.2834 0.581764 9.89222C0.997311 9.501 1.50982 9.30539 2.11929 9.30539C2.75646 9.30539 3.26896 9.501 3.65681 9.89222C4.04465 10.2834 4.23857 10.8004 4.23857 11.4431V30.0958C4.23857 30.7106 4.04465 31.2275 3.65681 31.6467C3.26896 32.0379 2.75646 32.2335 2.11929 32.2335ZM15.9985 32.2335C15.3891 32.2335 14.8766 32.0379 14.461 31.6467C14.0732 31.2275 13.8792 30.7106 13.8792 30.0958V18.1078C13.8792 16.3473 13.4498 15.0479 12.591 14.2096C11.7323 13.3433 10.6103 12.9102 9.22512 12.9102C7.78456 12.9102 6.59333 13.4132 5.65143 14.4192C4.70952 15.4251 4.23857 16.7106 4.23857 18.2754H1.62063C1.62063 16.4591 1.98077 14.8663 2.70105 13.497C3.42133 12.0998 4.41864 11.01 5.69298 10.2275C6.96732 9.44511 8.42173 9.05389 10.0562 9.05389C11.6353 9.05389 13.0343 9.40319 14.2532 10.1018C15.4722 10.8004 16.4141 11.8343 17.0789 13.2036C17.7715 14.5449 18.1178 16.1796 18.1178 18.1078V30.0958C18.1178 30.7106 17.9239 31.2275 17.536 31.6467C17.1482 32.0379 16.6357 32.2335 15.9985 32.2335Z" fill="#A055FF"/>
<path d="M47.9323 32.4012C46.0208 32.4012 44.3032 31.996 42.7795 31.1856C41.2835 30.3473 40.0923 29.1317 39.2058 27.5389C38.347 25.9461 37.9176 23.99 37.9176 21.6707V11.3593C37.9176 10.7445 38.1115 10.2415 38.4994 9.8503C38.9149 9.43114 39.4274 9.22156 40.0369 9.22156C40.6464 9.22156 41.145 9.43114 41.5329 9.8503C41.9484 10.2415 42.1562 10.7445 42.1562 11.3593V21.6707C42.1562 23.2355 42.4471 24.5349 43.0288 25.5689C43.6106 26.5749 44.4001 27.3293 45.3974 27.8323C46.3947 28.3074 47.5167 28.5449 48.7634 28.5449C49.9546 28.5449 51.0073 28.3074 51.9215 27.8323C52.8634 27.3573 53.6114 26.7146 54.1655 25.9042C54.7195 25.0938 54.9966 24.1856 54.9966 23.1796H57.6145C57.6145 24.9122 57.1851 26.477 56.3263 27.8743C55.4952 29.2715 54.3455 30.3752 52.8773 31.1856C51.4367 31.996 49.7884 32.4012 47.9323 32.4012ZM57.1158 32.1916C56.5064 32.1916 55.9939 31.996 55.5783 31.6048C55.1905 31.1856 54.9966 30.6687 54.9966 30.0539V11.3593C54.9966 10.7166 55.1905 10.1996 55.5783 9.80838C55.9939 9.41716 56.5064 9.22156 57.1158 9.22156C57.753 9.22156 58.2655 9.41716 58.6534 9.80838C59.0412 10.1996 59.2351 10.7166 59.2351 11.3593V30.0539C59.2351 30.6687 59.0412 31.1856 58.6534 31.6048C58.2655 31.996 57.753 32.1916 57.1158 32.1916Z" fill="white"/>
<path d="M74.3461 32.3593C72.4069 32.3593 70.6062 32.0659 68.944 31.479C67.3095 30.8643 66.0351 30.0958 65.1209 29.1737C64.7054 28.7265 64.5253 28.2236 64.5807 27.6647C64.6638 27.0778 64.9409 26.6028 65.4118 26.2395C65.9659 25.7924 66.5061 25.6108 67.0325 25.6946C67.5865 25.7505 68.0575 25.988 68.4453 26.4072C68.9163 26.9381 69.6643 27.4411 70.6893 27.9162C71.742 28.3633 72.9055 28.5868 74.1798 28.5868C75.7866 28.5868 77.0056 28.3214 77.8367 27.7904C78.6955 27.2595 79.1387 26.5748 79.1664 25.7365C79.1941 24.8982 78.7924 24.1717 77.9613 23.5569C77.1579 22.9421 75.6758 22.4391 73.515 22.0479C70.717 21.489 68.6808 20.6507 67.4064 19.5329C66.1598 18.4152 65.5365 17.0459 65.5365 15.4251C65.5365 14 65.952 12.8263 66.7831 11.9042C67.6142 10.9541 68.6808 10.2555 69.9828 9.80838C71.2849 9.33333 72.6423 9.09581 74.0552 9.09581C75.8836 9.09581 77.5042 9.38922 78.9171 9.97605C80.3299 10.5629 81.4519 11.3733 82.283 12.4072C82.6708 12.8543 82.8509 13.3293 82.8232 13.8323C82.7955 14.3074 82.56 14.7126 82.1168 15.0479C81.6735 15.3553 81.1472 15.4531 80.5377 15.3413C79.9282 15.2295 79.4157 14.978 79.0002 14.5868C78.3076 13.9162 77.5596 13.4551 76.7562 13.2036C75.9528 12.9521 75.0248 12.8263 73.9721 12.8263C72.7531 12.8263 71.7143 13.0359 70.8555 13.4551C70.0244 13.8743 69.6088 14.489 69.6088 15.2994C69.6088 15.8024 69.7335 16.2635 69.9828 16.6826C70.2599 17.0739 70.7862 17.4371 71.5619 17.7725C72.3376 18.0798 73.4734 18.3872 74.9694 18.6946C77.0471 19.1138 78.6816 19.6447 79.8728 20.2874C81.0918 20.9301 81.9644 21.6846 82.4908 22.5509C83.0171 23.3892 83.2803 24.3673 83.2803 25.485C83.2803 26.7705 82.934 27.9301 82.2414 28.9641C81.5766 29.998 80.5793 30.8224 79.2495 31.4371C77.9475 32.0519 76.313 32.3593 74.3461 32.3593Z" fill="white"/>
<path d="M90.5511 32.1916C89.9416 32.1916 89.4291 31.996 89.0135 31.6048C88.6257 31.1856 88.4318 30.6687 88.4318 30.0539V11.4012C88.4318 10.7585 88.6257 10.2415 89.0135 9.8503C89.4291 9.45908 89.9416 9.26347 90.5511 9.26347C91.1882 9.26347 91.7007 9.45908 92.0886 9.8503C92.4764 10.2415 92.6704 10.7585 92.6704 11.4012V30.0539C92.6704 30.6687 92.4764 31.1856 92.0886 31.6048C91.7007 31.996 91.1882 32.1916 90.5511 32.1916ZM90.5511 5.53293C89.8031 5.53293 89.1521 5.26746 88.598 4.73653C88.0716 4.17764 87.8085 3.52096 87.8085 2.76647C87.8085 2.01198 88.0716 1.36926 88.598 0.838323C89.1521 0.279441 89.8031 0 90.5511 0C91.299 0 91.9362 0.279441 92.4626 0.838323C93.0166 1.36926 93.2937 2.01198 93.2937 2.76647C93.2937 3.52096 93.0166 4.17764 92.4626 4.73653C91.9362 5.26746 91.299 5.53293 90.5511 5.53293Z" fill="white"/>
<path d="M102.052 42C101.442 42 100.93 41.7904 100.514 41.3713C100.126 40.98 99.9323 40.477 99.9323 39.8623V20.7485C99.9601 18.5409 100.473 16.5569 101.47 14.7964C102.467 13.0359 103.825 11.6527 105.542 10.6467C107.26 9.61277 109.199 9.09581 111.36 9.09581C113.548 9.09581 115.501 9.61277 117.219 10.6467C118.937 11.6527 120.294 13.0359 121.291 14.7964C122.316 16.5569 122.829 18.5409 122.829 20.7485C122.829 22.9561 122.358 24.9401 121.416 26.7006C120.502 28.4331 119.241 29.8164 117.635 30.8503C116.028 31.8563 114.213 32.3593 112.191 32.3593C110.556 32.3593 109.047 32.024 107.662 31.3533C106.304 30.6547 105.141 29.7186 104.171 28.5449V39.8623C104.171 40.477 103.977 40.98 103.589 41.3713C103.201 41.7904 102.689 42 102.052 42ZM111.36 28.5868C112.773 28.5868 114.033 28.2515 115.141 27.5808C116.249 26.8822 117.122 25.9461 117.759 24.7725C118.424 23.5709 118.757 22.2295 118.757 20.7485C118.757 19.2395 118.424 17.8982 117.759 16.7245C117.122 15.523 116.249 14.5868 115.141 13.9162C114.033 13.2176 112.773 12.8683 111.36 12.8683C109.975 12.8683 108.714 13.2176 107.578 13.9162C106.47 14.5868 105.598 15.523 104.96 16.7245C104.323 17.8982 104.005 19.2395 104.005 20.7485C104.005 22.2295 104.323 23.5709 104.96 24.7725C105.598 25.9461 106.47 26.8822 107.578 27.5808C108.714 28.2515 109.975 28.5868 111.36 28.5868Z" fill="#4CE653"/>
<path d="M138.833 32.3593C136.589 32.3593 134.608 31.8703 132.89 30.8922C131.173 29.8862 129.815 28.517 128.818 26.7844C127.848 25.024 127.364 23.012 127.364 20.7485C127.364 18.4571 127.848 16.4451 128.818 14.7126C129.815 12.9521 131.173 11.5828 132.89 10.6048C134.608 9.5988 136.589 9.09581 138.833 9.09581C141.049 9.09581 143.016 9.5988 144.733 10.6048C146.451 11.5828 147.795 12.9521 148.764 14.7126C149.762 16.4451 150.26 18.4571 150.26 20.7485C150.26 23.012 149.775 25.024 148.806 26.7844C147.836 28.517 146.493 29.8862 144.775 30.8922C143.057 31.8703 141.077 32.3593 138.833 32.3593ZM138.833 28.5868C140.273 28.5868 141.548 28.2515 142.656 27.5808C143.764 26.9102 144.623 25.988 145.232 24.8144C145.869 23.6407 146.188 22.2854 146.188 20.7485C146.188 19.2116 145.869 17.8563 145.232 16.6826C144.623 15.481 143.764 14.5449 142.656 13.8743C141.548 13.2036 140.273 12.8683 138.833 12.8683C137.392 12.8683 136.118 13.2036 135.01 13.8743C133.901 14.5449 133.029 15.481 132.392 16.6826C131.755 17.8563 131.436 19.2116 131.436 20.7485C131.436 22.2854 131.755 23.6407 132.392 24.8144C133.029 25.988 133.901 26.9102 135.01 27.5808C136.118 28.2515 137.392 28.5868 138.833 28.5868Z" fill="white"/>
<path d="M157.981 17.8563C157.981 16.1796 158.383 14.6846 159.186 13.3713C160.017 12.0299 161.126 10.9681 162.511 10.1856C163.896 9.40319 165.419 9.01197 167.082 9.01197C168.744 9.01197 169.977 9.29141 170.78 9.8503C171.611 10.3812 171.93 11.024 171.736 11.7784C171.653 12.1697 171.486 12.477 171.237 12.7006C171.015 12.8962 170.752 13.022 170.448 13.0778C170.143 13.1337 169.81 13.1198 169.45 13.0359C167.677 12.6727 166.084 12.6447 164.671 12.9521C163.259 13.2595 162.137 13.8323 161.306 14.6707C160.502 15.509 160.1 16.5709 160.1 17.8563H157.981ZM158.023 32.1916C157.358 32.1916 156.845 32.024 156.485 31.6886C156.125 31.3253 155.945 30.7944 155.945 30.0958V11.3593C155.945 10.6886 156.125 10.1717 156.485 9.80838C156.845 9.44511 157.358 9.26347 158.023 9.26347C158.715 9.26347 159.228 9.44511 159.56 9.80838C159.92 10.1437 160.1 10.6607 160.1 11.3593V30.0958C160.1 30.7665 159.92 31.2834 159.56 31.6467C159.228 32.01 158.715 32.1916 158.023 32.1916Z" fill="white"/>
<path d="M183.8 32.1916C182.415 32.1916 181.168 31.8423 180.06 31.1437C178.952 30.4172 178.08 29.4391 177.442 28.2096C176.805 26.98 176.487 25.5968 176.487 24.0599V4.06587C176.487 3.4511 176.681 2.9481 177.068 2.55689C177.456 2.16567 177.955 1.97006 178.564 1.97006C179.174 1.97006 179.673 2.16567 180.06 2.55689C180.448 2.9481 180.642 3.4511 180.642 4.06587V24.0599C180.642 25.1776 180.947 26.1138 181.556 26.8683C182.166 27.6228 182.914 28 183.8 28H185.213C185.712 28 186.127 28.1956 186.46 28.5868C186.82 28.978 187 29.481 187 30.0958C187 30.7106 186.765 31.2136 186.294 31.6048C185.85 31.996 185.269 32.1916 184.548 32.1916H183.8ZM174.575 13.7066C173.993 13.7066 173.522 13.5389 173.162 13.2036C172.802 12.8683 172.622 12.4491 172.622 11.9461C172.622 11.3872 172.802 10.9401 173.162 10.6048C173.522 10.2695 173.993 10.1018 174.575 10.1018H184.174C184.756 10.1018 185.227 10.2695 185.587 10.6048C185.947 10.9401 186.127 11.3872 186.127 11.9461C186.127 12.4491 185.947 12.8683 185.587 13.2036C185.227 13.5389 184.756 13.7066 184.174 13.7066H174.575Z" fill="white"/>
</g>
</svg>
